# xmcd
#
# Track frame offsets:
#	150
#	14643
#	29780
#	45614
#	61975
#	76231
#	88914
#	106239
#	121086
#	135838
#	152081
#	165002
#	181385
#	198411
#	218855
#	232509
#	250901
#	263987
#	277328
#	290924
#
# Disc length: 4062 seconds
#
# Revision: 0
# Processed by: cddbd v1.5.2PL0 Copyright (c) Steve Scherf et al.
# Submitted via: EasyCDDAExtractor 16.0.6.1
#
DISCID=180fdc14
DTITLE=Καζαντζίδης Στέλιος - Το λαϊκό τραγούδι 01-Σ. Καζαντζίδης
DYEAR=2010
DGENRE=Ποικίλη
TTITLE0=Καζαντζίδης Στέλιος - Το αγριολούλουδο [Χρ. Νικολόπουλος-Πυθαγόρας]
TTITLE1=Καζαντζίδης Στέλιος - Αραπίνες [Βασ. Τσιτσάνης]
TTITLE2=Καζαντζίδης Στέλιος - Βραδιάζει [Χρ. Νικολόπουλος-Σώτια Τσώτου]
TTITLE3=Καζαντζίδης Στέλιος - Της γερακίνας γιός [Βασ. Τσιτσάνης-Κώστας Βίρβος
TTITLE3=]
TTITLE4=Καζαντζίδης Στέλιος - Το τελευταίο βράδυ μου [Στ. Καζαντζίδης]
TTITLE5=Καζαντζίδης Στέλιος - Νέα Ιωνία [Χρ. Νικολόπουλος-Πυθαγόρας]
TTITLE6=Καζαντζίδης Στέλιος - Έϊ καπετάνιε [Τάκης Σούκας-Σώτια Τσώτου]
TTITLE7=Καζαντζίδης Στέλιος - Πέφτουν της βροχής οι στάλες [Βασ. Τσιτσάνης]
TTITLE8=Καζαντζίδης Στέλιος - Παραστράτησα για σένα [Κώστας Καπλάνης]
TTITLE9=Καζαντζίδης Στέλιος - Σ' έχω ερωτευτεί πολύ [Θανάσης Τσολερίδης]
TTITLE10=Καζαντζίδης Στέλιος - Αυτοί που πρέπει να μιλήσουν [Τ. Σούκας-Βασ. Πα
TTITLE10=παδόπουλος]
TTITLE11=Καζαντζίδης Στέλιος - Μακρόνησα [Χρ. Νικολόπουλος-Πυθαγόρας]
TTITLE12=Καζαντζίδης Στέλιος - Καταστροφές και συμφορές [Θ. Δερβενιώτης-Χρ. Νι
TTITLE12=κολόπουλος]
TTITLE13=Καζαντζίδης Στέλιος - Εγώ ποτέ δεν τραγουδώ [Θ. Πολυκανδριώτης-Λ. Παπ
TTITLE13=αδόπουλος]
TTITLE14=Καζαντζίδης Στέλιος - Να μ' αγαπάς [Τάκης Σούκας-Σώτια Τσώτου]
TTITLE15=Καζαντζίδης Στέλιος - Αμάν [Χρ. Νικολόπουλος-Σώτια Τσώτου]
TTITLE16=Μαρινέλλα-Καζαντζίδης Στέλιος - Ηλιοβασιλέματα [Μαν. Χιώτης]
TTITLE17=Καζαντζίδης Στέλιος - Θα βρω μουρμούρη μπαγλαμά [Απ. Καλδάρας-Ε. Παπα
TTITLE17=γιαννοπούλου]
TTITLE18=Καζαντζίδης Στέλιος-Μαρινέλλα - Ζιγκουάλα [Σ. Καζαντζίδης-Νίκος Μουρά
TTITLE18=κος]
TTITLE19=Καζαντζίδης Στέλιος - Ουΐσκι, τζιν και φρούμελ [Β. Καραπατάκης-Χρ. Κο
TTITLE19=λοκοτρώνης]
EXTD=
EXTT0=
EXTT1=
EXTT2=
EXTT3=
EXTT4=
EXTT5=
EXTT6=
EXTT7=
EXTT8=
EXTT9=
EXTT10=
EXTT11=
EXTT12=
EXTT13=
EXTT14=
EXTT15=
EXTT16=
EXTT17=
EXTT18=
EXTT19=
PLAYORDER=
